<mxfile host="app.diagrams.net" modified="2023-08-28T07:59:45.848Z" agent="Mozilla/5.0 (Windows NT 10.0; Win64; x64) AppleWebKit/537.36 (KHTML, like Gecko) Chrome/116.0.0.0 Safari/537.36 Edg/116.0.1938.54" etag="Eo2piXyUe9Xpcs97-uAF" version="21.6.9" type="github">
  <diagram name="第 1 页" id="5FYJHHkxqhDt35G1L602">
    <mxGraphModel dx="1149" dy="637" grid="1" gridSize="10" guides="1" tooltips="1" connect="1" arrows="1" fold="1" page="1" pageScale="1" pageWidth="827" pageHeight="1169" math="0" shadow="0">
      <root>
        <mxCell id="0" />
        <mxCell id="1" parent="0" />
        <mxCell id="BzCStRZGAQr5m9LA3WUm-8" value="" style="group;rounded=0;labelBackgroundColor=none;fontColor=#5AA9E6;fontSize=19;" vertex="1" connectable="0" parent="1">
          <mxGeometry x="190" y="120" width="120" height="420" as="geometry" />
        </mxCell>
        <mxCell id="BzCStRZGAQr5m9LA3WUm-1" value="NULL" style="rounded=0;whiteSpace=wrap;html=1;labelBackgroundColor=none;fillColor=#FFE45E;strokeColor=#FF6392;fontColor=#5AA9E6;fontSize=19;" vertex="1" parent="BzCStRZGAQr5m9LA3WUm-8">
          <mxGeometry y="60" width="120" height="60" as="geometry" />
        </mxCell>
        <mxCell id="BzCStRZGAQr5m9LA3WUm-2" value="" style="rounded=0;whiteSpace=wrap;html=1;labelBackgroundColor=none;fillColor=#FFE45E;strokeColor=#FF6392;fontColor=#5AA9E6;fontSize=19;" vertex="1" parent="BzCStRZGAQr5m9LA3WUm-8">
          <mxGeometry y="120" width="120" height="60" as="geometry" />
        </mxCell>
        <mxCell id="BzCStRZGAQr5m9LA3WUm-3" value="NULL" style="rounded=0;whiteSpace=wrap;html=1;labelBackgroundColor=none;fillColor=#FFE45E;strokeColor=#FF6392;fontColor=#5AA9E6;fontSize=19;" vertex="1" parent="BzCStRZGAQr5m9LA3WUm-8">
          <mxGeometry y="180" width="120" height="60" as="geometry" />
        </mxCell>
        <mxCell id="BzCStRZGAQr5m9LA3WUm-4" value="NULL" style="rounded=0;whiteSpace=wrap;html=1;labelBackgroundColor=none;fillColor=#FFE45E;strokeColor=#FF6392;fontColor=#5AA9E6;fontSize=19;" vertex="1" parent="BzCStRZGAQr5m9LA3WUm-8">
          <mxGeometry y="240" width="120" height="60" as="geometry" />
        </mxCell>
        <mxCell id="BzCStRZGAQr5m9LA3WUm-5" value="NULL" style="rounded=0;whiteSpace=wrap;html=1;labelBackgroundColor=none;fillColor=#FFE45E;strokeColor=#FF6392;fontColor=#5AA9E6;fontSize=19;" vertex="1" parent="BzCStRZGAQr5m9LA3WUm-8">
          <mxGeometry y="300" width="120" height="60" as="geometry" />
        </mxCell>
        <mxCell id="BzCStRZGAQr5m9LA3WUm-6" value="NULL" style="rounded=0;whiteSpace=wrap;html=1;labelBackgroundColor=none;fillColor=#FFE45E;strokeColor=#FF6392;fontColor=#5AA9E6;fontSize=19;" vertex="1" parent="BzCStRZGAQr5m9LA3WUm-8">
          <mxGeometry y="360" width="120" height="60" as="geometry" />
        </mxCell>
        <mxCell id="BzCStRZGAQr5m9LA3WUm-7" value="NULL" style="rounded=0;whiteSpace=wrap;html=1;labelBackgroundColor=none;fillColor=#FFE45E;strokeColor=#FF6392;fontColor=#5AA9E6;fontSize=19;" vertex="1" parent="BzCStRZGAQr5m9LA3WUm-8">
          <mxGeometry width="120" height="60" as="geometry" />
        </mxCell>
        <mxCell id="BzCStRZGAQr5m9LA3WUm-18" value="NULL" style="rounded=0;whiteSpace=wrap;html=1;strokeColor=#FF6392;fontColor=#5AA9E6;fillColor=#FFE45E;fontSize=19;" vertex="1" parent="1">
          <mxGeometry x="190" y="540" width="120" height="60" as="geometry" />
        </mxCell>
        <mxCell id="BzCStRZGAQr5m9LA3WUm-20" value="" style="endArrow=classic;html=1;rounded=0;strokeColor=#FF6392;fontColor=#5AA9E6;fillColor=#FFE45E;fontSize=19;strokeWidth=4;" edge="1" parent="1">
          <mxGeometry width="50" height="50" relative="1" as="geometry">
            <mxPoint x="90" y="120" as="sourcePoint" />
            <mxPoint x="190" y="120" as="targetPoint" />
          </mxGeometry>
        </mxCell>
        <mxCell id="BzCStRZGAQr5m9LA3WUm-21" value="map_" style="text;html=1;align=center;verticalAlign=middle;resizable=0;points=[];autosize=1;strokeColor=none;fillColor=none;fontColor=#5AA9E6;fontSize=19;" vertex="1" parent="1">
          <mxGeometry x="30" y="95" width="70" height="40" as="geometry" />
        </mxCell>
        <mxCell id="BzCStRZGAQr5m9LA3WUm-28" value="" style="group;fontSize=19;" vertex="1" connectable="0" parent="1">
          <mxGeometry x="390" y="250" width="420" height="40" as="geometry" />
        </mxCell>
        <mxCell id="BzCStRZGAQr5m9LA3WUm-22" value="1" style="rounded=0;whiteSpace=wrap;html=1;strokeColor=#82b366;fillColor=#d5e8d4;fontSize=19;" vertex="1" parent="BzCStRZGAQr5m9LA3WUm-28">
          <mxGeometry width="70" height="40" as="geometry" />
        </mxCell>
        <mxCell id="BzCStRZGAQr5m9LA3WUm-23" value="2" style="rounded=0;whiteSpace=wrap;html=1;strokeColor=#82b366;fillColor=#d5e8d4;fontSize=19;" vertex="1" parent="BzCStRZGAQr5m9LA3WUm-28">
          <mxGeometry x="70" width="70" height="40" as="geometry" />
        </mxCell>
        <mxCell id="BzCStRZGAQr5m9LA3WUm-24" value="3" style="rounded=0;whiteSpace=wrap;html=1;strokeColor=#82b366;fillColor=#d5e8d4;fontSize=19;" vertex="1" parent="BzCStRZGAQr5m9LA3WUm-28">
          <mxGeometry x="140" width="70" height="40" as="geometry" />
        </mxCell>
        <mxCell id="BzCStRZGAQr5m9LA3WUm-25" value="" style="rounded=0;whiteSpace=wrap;html=1;strokeColor=#82b366;fillColor=#d5e8d4;fontSize=19;" vertex="1" parent="BzCStRZGAQr5m9LA3WUm-28">
          <mxGeometry x="210" width="70" height="40" as="geometry" />
        </mxCell>
        <mxCell id="BzCStRZGAQr5m9LA3WUm-26" value="" style="rounded=0;whiteSpace=wrap;html=1;strokeColor=#82b366;fillColor=#d5e8d4;" vertex="1" parent="BzCStRZGAQr5m9LA3WUm-28">
          <mxGeometry x="280" width="70" height="40" as="geometry" />
        </mxCell>
        <mxCell id="BzCStRZGAQr5m9LA3WUm-27" value="" style="rounded=0;whiteSpace=wrap;html=1;strokeColor=#82b366;fillColor=#d5e8d4;" vertex="1" parent="BzCStRZGAQr5m9LA3WUm-28">
          <mxGeometry x="350" width="70" height="40" as="geometry" />
        </mxCell>
        <mxCell id="BzCStRZGAQr5m9LA3WUm-30" value="" style="endArrow=classic;html=1;rounded=0;strokeColor=#FF6392;fontColor=#5AA9E6;fillColor=#FFE45E;strokeWidth=4;" edge="1" parent="1">
          <mxGeometry width="50" height="50" relative="1" as="geometry">
            <mxPoint x="310" y="269.5" as="sourcePoint" />
            <mxPoint x="390" y="269.5" as="targetPoint" />
          </mxGeometry>
        </mxCell>
        <mxCell id="BzCStRZGAQr5m9LA3WUm-31" value="" style="group;fontSize=19;" vertex="1" connectable="0" parent="1">
          <mxGeometry x="390" y="390" width="420" height="40" as="geometry" />
        </mxCell>
        <mxCell id="BzCStRZGAQr5m9LA3WUm-32" value="cur" style="rounded=0;whiteSpace=wrap;html=1;strokeColor=#82b366;fillColor=#d5e8d4;fontSize=19;" vertex="1" parent="BzCStRZGAQr5m9LA3WUm-31">
          <mxGeometry width="70" height="40" as="geometry" />
        </mxCell>
        <mxCell id="BzCStRZGAQr5m9LA3WUm-33" value="first" style="rounded=0;whiteSpace=wrap;html=1;strokeColor=#82b366;fillColor=#d5e8d4;fontSize=19;" vertex="1" parent="BzCStRZGAQr5m9LA3WUm-31">
          <mxGeometry x="70" width="70" height="40" as="geometry" />
        </mxCell>
        <mxCell id="BzCStRZGAQr5m9LA3WUm-34" value="last" style="rounded=0;whiteSpace=wrap;html=1;strokeColor=#82b366;fillColor=#d5e8d4;fontSize=19;" vertex="1" parent="BzCStRZGAQr5m9LA3WUm-31">
          <mxGeometry x="140" width="70" height="40" as="geometry" />
        </mxCell>
        <mxCell id="BzCStRZGAQr5m9LA3WUm-35" value="node" style="rounded=0;whiteSpace=wrap;html=1;strokeColor=#82b366;fillColor=#d5e8d4;fontSize=19;" vertex="1" parent="BzCStRZGAQr5m9LA3WUm-31">
          <mxGeometry x="210" width="70" height="40" as="geometry" />
        </mxCell>
        <mxCell id="BzCStRZGAQr5m9LA3WUm-42" value="" style="endArrow=classic;html=1;rounded=0;strokeColor=#FF6392;fontColor=#5AA9E6;fillColor=#FFE45E;exitX=0.5;exitY=0;exitDx=0;exitDy=0;entryX=0;entryY=1;entryDx=0;entryDy=0;strokeWidth=3;" edge="1" parent="1" source="BzCStRZGAQr5m9LA3WUm-32" target="BzCStRZGAQr5m9LA3WUm-25">
          <mxGeometry width="50" height="50" relative="1" as="geometry">
            <mxPoint x="590" y="340" as="sourcePoint" />
            <mxPoint x="640" y="290" as="targetPoint" />
            <Array as="points">
              <mxPoint x="425" y="340" />
              <mxPoint x="600" y="340" />
            </Array>
          </mxGeometry>
        </mxCell>
        <mxCell id="BzCStRZGAQr5m9LA3WUm-43" value="" style="endArrow=classic;html=1;rounded=0;strokeColor=#9673a6;fontColor=#5AA9E6;fillColor=#e1d5e7;exitX=0.5;exitY=0;exitDx=0;exitDy=0;entryX=-0.005;entryY=1.09;entryDx=0;entryDy=0;entryPerimeter=0;strokeWidth=3;" edge="1" parent="1" target="BzCStRZGAQr5m9LA3WUm-22">
          <mxGeometry width="50" height="50" relative="1" as="geometry">
            <mxPoint x="492.5" y="390" as="sourcePoint" />
            <mxPoint x="707.5" y="290" as="targetPoint" />
            <Array as="points">
              <mxPoint x="493" y="360" />
              <mxPoint x="390" y="360" />
            </Array>
          </mxGeometry>
        </mxCell>
        <mxCell id="BzCStRZGAQr5m9LA3WUm-44" value="" style="endArrow=classic;html=1;rounded=0;strokeColor=#d6b656;fontColor=#5AA9E6;fillColor=#fff2cc;exitX=0.437;exitY=-0.029;exitDx=0;exitDy=0;exitPerimeter=0;strokeWidth=3;" edge="1" parent="1" source="BzCStRZGAQr5m9LA3WUm-34">
          <mxGeometry width="50" height="50" relative="1" as="geometry">
            <mxPoint x="595" y="390" as="sourcePoint" />
            <mxPoint x="810" y="290" as="targetPoint" />
            <Array as="points">
              <mxPoint x="560" y="360" />
              <mxPoint x="810" y="360" />
            </Array>
          </mxGeometry>
        </mxCell>
        <mxCell id="BzCStRZGAQr5m9LA3WUm-45" value="" style="endArrow=classic;html=1;rounded=0;strokeColor=#6F0000;fontColor=#5AA9E6;fillColor=#a20025;exitX=0.5;exitY=1;exitDx=0;exitDy=0;strokeWidth=3;" edge="1" parent="1" source="BzCStRZGAQr5m9LA3WUm-35">
          <mxGeometry width="50" height="50" relative="1" as="geometry">
            <mxPoint x="510" y="440" as="sourcePoint" />
            <mxPoint x="190" y="240" as="targetPoint" />
            <Array as="points">
              <mxPoint x="635" y="640" />
              <mxPoint x="130" y="640" />
              <mxPoint x="130" y="440" />
              <mxPoint x="130" y="240" />
            </Array>
          </mxGeometry>
        </mxCell>
      </root>
    </mxGraphModel>
  </diagram>
</mxfile>
